# xmcd CD database file
#
# Track frame offsets:
#	150
#	13693
#	27437
#	44107
#	60879
#	77867
#	88862
#	105285
#	124069
#	134195
#	150098
#	164312
#
# Disc length: 2413 seconds
#
# Revision: 0
# Processed by: cddbd v1.5.1PL0 Copyright (c) Steve Scherf et al.
# Submitted via: CDex 1.51
#
DISCID=94096b0c
DTITLE=Mississippi John Hurt - Blues Legend
DYEAR=2004
DGENRE=Blues
TTITLE0=Salty Dog Blues
TTITLE1=Coffee Blues
TTITLE2=Avalon, My Home Town
TTITLE3=Candy Man
TTITLE4=C.C. Rider
TTITLE5=It Ain't Nobody's Business
TTITLE6=Monday Morning Blues
TTITLE7=Stagger Lee
TTITLE8=You Are My Sunshine
TTITLE9=Baby, What's Wrong With You
TTITLE10=Sliding Delta
TTITLE11=Since I've Laid This Burden Down
EXTD=YEAR: 2004
EXTT0=
EXTT1=
EXTT2=
EXTT3=
EXTT4=
EXTT5=
EXTT6=
EXTT7=
EXTT8=
EXTT9=
EXTT10=
EXTT11=
PLAYORDER=
